<svg xmlns="http://www.w3.org/2000/svg" width="1080" height="190" viewBox="0 0 1080 190">
  <defs>
    <style>
      .cls-1 {
        fill: #fff;
        fill-rule: evenodd;
      }
    </style>
  </defs>
  <path id="CODEGA_SQUADRA_CORSE" data-name="CODEGA SQUADRA CORSE" class="cls-1" d="M23.18,62.094c0,27.637,23.971,49.353,51.891,49.353H199.3V96.077H75.07C54.765,96.077,39.4,79.72,39.4,62.094a25.948,25.948,0,0,1,.705-5.217L40.524,54.9c3.525-15.37,18.19-26.509,33.56-26.509H199.157V12.883H74.929C47.433,12.883,23.18,34.457,23.18,62.094ZM210.568,39.251V85.5c0,14.664,12.55,26.368,27.779,26.368H358.626c15.229,0,27.778-11.7,27.778-26.368V39.251c0-14.665-12.549-26.368-27.778-26.368H238.347C223.118,12.883,210.568,24.587,210.568,39.251Zm15.793,46.109V39.11c0-5.781,5.218-10.717,11.845-10.717H358.485c6.627,0,11.845,4.935,11.845,10.717v46.25c0,5.64-5.218,10.858-11.845,10.858H238.206C231.579,96.218,226.361,91,226.361,85.361ZM521.337,28.394c20.023,0,35.675,15.37,35.675,33.842,0,19.6-16.5,33.983-35.675,33.983H397.674v15.37h123.8c27.637,0,51.891-21.715,51.891-49.353,0-27.073-23.69-49.211-51.891-49.211V12.883h-123.8V28.394H521.337Zm64.712,83.194H762.025V96.077H586.049v15.511ZM762.025,28.112V12.742L586.049,12.6V28.112H762.025ZM586.049,54.48V69.709H753.565V54.48H586.049Zm188.657,7.614c0,28.2,24.394,49.494,51.467,49.494h33.983c1.128-1.128,37.79-41.879,51.75-56.967l-75.721-.141L846.76,69.85h29.048L851.837,96.218h-25.8c-19.177,0-35.392-15.229-35.392-33.983V62.094c0-18.472,15.651-33.842,35.392-33.842H936.018c2.115-2.115,5.358-5.922,8.6-9.306,1.834-1.833,3.526-3.948,5.641-6.063H826.173C799.1,12.883,774.706,34.457,774.706,62.094Zm243.944,49.494-14.1-15.37H916.982l54.57-59.787,68.808,75.157h21.3l-3.81-4.371c-7.48-8.038-24.25-26.651-41.18-44.982-13.39-14.665-28.2-30.739-45.118-49.352l-90.245,98.705H1018.65ZM17.738,177.452H87.91c7.94,0,14.387-6.243,14.387-13.776,0-7.6-7.058-13.709-14.319-13.709H32.057a6.449,6.449,0,0,1-6.583-6.311,6.2,6.2,0,0,1,6.244-6.108H102.3v-7.465H32.125c-7.533,0-14.319,5.972-14.319,13.573v0.271c0,7.805,7.126,13.573,14.184,13.573H88.045a6.316,6.316,0,0,1,6.447,6.244,6.449,6.449,0,0,1-6.583,6.311H17.738v7.4Zm90.677-12.487c0,6.99,5.972,12.623,13.234,12.623H179.4l2.714,2.579h11.13l-15.541-14.455H166.779l4.75,4.547h-49.88a5.266,5.266,0,0,1-5.5-5.294V142.909a5.375,5.375,0,0,1,5.5-5.429h58.092a5.549,5.549,0,0,1,5.5,5.429v22.056l7.737,7.33V142.909a13.026,13.026,0,0,0-13.234-12.758H121.649a13.069,13.069,0,0,0-13.234,12.758v22.056ZM201.4,130.083v34.882c0,7.058,6.447,12.623,13.233,12.623h58.092c6.922,0,13.234-5.565,13.234-12.623V130.083h-7.737v34.882a5.335,5.335,0,0,1-5.5,5.226H214.634a5.564,5.564,0,0,1-5.5-5.226V130.083H201.4Zm84.366,47.505h66.1l-6.787-7.4H302.937L329.2,141.416l33.118,36.172h10.315l-1.832-2.1c-7.194-7.736-32.643-35.629-39.633-43.365l-1.9-2.036Zm56.87-44.112c1.154,1.289,2.376,2.647,3.733,4.072H399.1c9.636,0,17.169,7.4,17.169,16.287,0,9.434-7.94,16.356-17.169,16.356H376.3l6.786,7.4H399.1c13.3,0,24.974-10.451,24.974-23.753,0-13.03-11.4-23.684-24.974-23.684v-0.068H339.583C340.466,131.1,341.484,132.187,342.637,133.476Zm87.562,4.14h71.054a6.576,6.576,0,0,1,5.972,6.311c0,3.258-2.715,5.836-5.972,6.312H430.266v27.417H438v-20.02h52.188l18.052,20.02h9.162L500.1,157.568h0.272a14.331,14.331,0,0,0,9.908-3.733c9.3-7.94,3.529-23.684-9.908-23.684H430.2v7.465Zm88.574,40.04h66.1l-6.787-7.4H535.942l26.264-28.775,1.425,1.561c6.311,6.922,31.353,34.271,31.693,34.611h10.315c-10.587-11.673-38.615-42.416-43.433-47.5ZM652.48,153.767c0,13.3,11.537,23.753,24.975,23.753h59.788v-7.4H677.455c-9.773,0-17.17-7.872-17.17-16.356a12.537,12.537,0,0,1,.339-2.51l0.2-.951a16.872,16.872,0,0,1,16.152-12.758h60.195v-7.465H677.387C664.153,130.083,652.48,140.466,652.48,153.767Zm90.2-10.994v22.26c0,7.058,6.04,12.691,13.369,12.691H813.94c7.33,0,13.37-5.633,13.37-12.691v-22.26c0-7.057-6.04-12.69-13.37-12.69H756.052C748.723,130.083,742.683,135.716,742.683,142.773Zm7.6,22.192V142.706a5.467,5.467,0,0,1,5.7-5.158h57.888a5.467,5.467,0,0,1,5.7,5.158v22.259a5.567,5.567,0,0,1-5.7,5.226H755.984A5.567,5.567,0,0,1,750.283,164.965Zm85.181-27.349h71.054a6.575,6.575,0,0,1,5.972,6.311c0,3.258-2.714,5.836-5.972,6.312H835.532v27.417h7.736v-20.02h52.188l18.052,20.02h9.162l-17.306-20.088h0.272a14.33,14.33,0,0,0,9.908-3.733c9.3-7.94,3.529-23.684-9.908-23.684H835.464v7.465Zm89.931,6.04v0.271c0,7.6,6.922,13.573,14.252,13.573h21.309a6.316,6.316,0,0,1,6.447,6.244,6.448,6.448,0,0,1-6.583,6.311H925.463v7.4H960.82c7.873,0,14.388-5.9,14.388-13.776,0-8.076-6.855-13.709-14.252-13.709l-0.068.136H939.782a6.448,6.448,0,0,1-6.582-6.312,6.35,6.35,0,0,1,6.582-6.243h63.388l6.78-7.465H939.782C931.91,130.083,925.4,136.326,925.4,143.656Zm136.745,33.728v-7.465H984.234l-6.787,7.465h84.693Zm-4.14-20.02v-7.4h-55.44l-6.789,7.4H1058Zm4.21-20.223v-7.4h-41.26c-1.56,1.629-3.87,4.208-6.79,7.4h48.05Z"/>
</svg>